<svg width="55" height="55" viewBox="0 0 55 55" fill="none" xmlns="http://www.w3.org/2000/svg">
<path d="M54.9566 27.5624C54.9566 42.6683 42.7109 54.914 27.605 54.914C12.4991 54.914 0.253387 42.6683 0.253387 27.5624C0.253387 12.4565 12.4991 0.210815 27.605 0.210815C42.7109 0.210815 54.9566 12.4565 54.9566 27.5624Z" fill="#3EC6FF"/>
<path d="M22.1652 19.3896H29.2722C31.0355 19.3896 32.4079 19.819 33.3892 20.6776C34.3705 21.521 34.8612 22.6786 34.8612 24.1506C34.8612 25.6226 34.3629 26.788 33.3662 27.6466C32.3849 28.5053 31.0202 28.9346 29.2722 28.9346H25.1322V35.7656H22.1652V19.3896ZM28.9272 26.6346C29.9545 26.6346 30.7289 26.4276 31.2502 26.0136C31.7869 25.5843 32.0552 24.971 32.0552 24.1736C32.0552 23.361 31.7945 22.7476 31.2732 22.3336C30.7519 21.9043 29.9699 21.6896 28.9272 21.6896H25.1322V26.6346H28.9272Z" fill="white"/>
</svg>
