<svg width="20" height="22" viewBox="0 0 20 22" fill="none" xmlns="http://www.w3.org/2000/svg">
<path d="M19.1872 5.59922L10.7872 1.11811C10.5468 0.990731 10.2757 0.923828 9.99995 0.923828C9.72421 0.923828 9.4531 0.990731 9.21265 1.11811L0.812696 5.59922C0.56622 5.73099 0.361155 5.92206 0.218393 6.15299C0.0756315 6.38391 0.000274717 6.64642 0 6.91378V15.8485C0.000239374 16.1159 0.0755794 16.3785 0.218343 16.6094C0.361107 16.8404 0.56619 17.0315 0.812696 17.1633L9.21265 21.6443C9.45309 21.7717 9.7242 21.8386 9.99995 21.8386C10.2757 21.8386 10.5468 21.7717 10.7872 21.6443L19.1872 17.1632C19.4337 17.0314 19.6388 16.8403 19.7816 16.6094C19.9244 16.3784 19.9997 16.1159 20 15.8485V6.91378C19.9997 6.64642 19.9244 6.38391 19.7816 6.15299C19.6388 5.92206 19.4337 5.73099 19.1872 5.59922ZM10 14.779C9.28804 14.779 8.59202 14.5797 8.00001 14.2063C7.40799 13.833 6.94657 13.3023 6.6741 12.6815C6.40163 12.0606 6.33033 11.3774 6.46924 10.7183C6.60815 10.0592 6.95101 9.45379 7.45448 8.97861C7.95794 8.50342 8.5994 8.17981 9.29773 8.04871C9.99606 7.9176 10.7199 7.98489 11.3777 8.24206C12.0355 8.49923 12.5978 8.93473 12.9933 9.49349C13.3889 10.0523 13.6 10.7092 13.6 11.3812C13.599 12.282 13.2193 13.1457 12.5445 13.7827C11.8696 14.4197 10.9545 14.778 10 14.779Z" fill="#F28D8D"/>
</svg>
