<svg width="32" height="16" viewBox="0 0 32 16" fill="none" xmlns="http://www.w3.org/2000/svg">
<path d="M31.4905 3.14674L20.8003 6.17416L18.2758 4.97441C17.8314 4.76327 17.3415 4.65326 16.8448 4.65308H14.0002V2.37146H16.8003C17.2423 2.37146 17.6003 2.03112 17.6003 1.61092V0.850383C17.6003 0.430185 17.2423 0.0898438 16.8003 0.0898438H8.80014C8.35813 0.0898438 8.00012 0.430185 8.00012 0.850383V1.61092C8.00012 2.03112 8.35813 2.37146 8.80014 2.37146H11.6002V4.65308H8.80014L1.88603 3.45808C1.79054 3.44132 1.69363 3.43289 1.59653 3.43289C0.733512 3.43289 0 4.09979 0 4.95444V9.46777C0 10.2026 0.553009 10.8329 1.31402 10.9641L4.80008 11.5673V13.7795C4.80008 14.6195 5.51659 15.3006 6.4001 15.3006H20.1318C20.5593 15.3006 20.9693 15.1381 21.2698 14.8486L31.883 4.64072C31.958 4.56942 32 4.47245 32 4.37168V3.51227C32.0005 3.25987 31.746 3.07734 31.4905 3.14674ZM4.80008 9.24816L2.40004 8.83319V5.86566L4.80008 6.28063V9.24816ZM27.4669 13.2724C27.4669 14.3923 28.4219 15.3006 29.6005 15.3006C30.779 15.3006 31.734 14.3927 31.734 13.2724C31.734 12.152 29.6005 9.21631 29.6005 9.21631C29.6005 9.21631 27.4669 12.1525 27.4669 13.2724Z" fill="#008DC8"/>
</svg>
