<svg width="20" height="22" viewBox="0 0 20 22" fill="none" xmlns="http://www.w3.org/2000/svg">
<path d="M19.1872 5.57237L10.7872 1.09126C10.5468 0.963876 10.2757 0.896973 9.99995 0.896973C9.72421 0.896973 9.4531 0.963876 9.21265 1.09126L0.812696 5.57237C0.56622 5.70414 0.361155 5.89522 0.218393 6.12614C0.0756315 6.35706 0.000274717 6.61957 0 6.88693V15.8217C0.000239374 16.0891 0.0755794 16.3516 0.218343 16.5826C0.361107 16.8135 0.56619 17.0047 0.812696 17.1364L9.21265 21.6175C9.45309 21.7449 9.7242 21.8118 9.99995 21.8118C10.2757 21.8118 10.5468 21.7449 10.7872 21.6175L19.1872 17.1363C19.4337 17.0046 19.6388 16.8135 19.7816 16.5826C19.9244 16.3516 19.9997 16.0891 20 15.8217V6.88693C19.9997 6.61957 19.9244 6.35706 19.7816 6.12614C19.6388 5.89522 19.4338 5.70414 19.1873 5.57237H19.1872ZM10 14.7521C9.28804 14.7521 8.59202 14.5529 8.00001 14.1795C7.40799 13.8062 6.94657 13.2755 6.6741 12.6546C6.40163 12.0338 6.33033 11.3506 6.46924 10.6915C6.60815 10.0324 6.95101 9.42695 7.45448 8.95176C7.95794 8.47657 8.5994 8.15297 9.29773 8.02186C9.99606 7.89076 10.7199 7.95804 11.3777 8.21521C12.0355 8.47238 12.5978 8.90789 12.9933 9.46665C13.3889 10.0254 13.6 10.6823 13.6 11.3544C13.599 12.2552 13.2193 13.1189 12.5445 13.7558C11.8696 14.3928 10.9545 14.7511 10 14.7521Z" fill="#A1F9A9"/>
</svg>
