<svg width="33" height="32" viewBox="0 0 33 32" fill="none" xmlns="http://www.w3.org/2000/svg">
<path opacity="0.4" d="M32.0167 17.8532H17.6223L27.2087 27.6496C27.5751 28.024 28.178 28.0544 28.5547 27.6917C30.9023 25.4316 32.5172 22.3847 32.9909 18.9597C33.0722 18.3733 32.596 17.8532 32.0167 17.8532ZM31.0564 13.8361C30.5566 6.4307 24.7658 0.513047 17.5192 0.0022416C16.966 -0.0368127 16.5001 0.439898 16.5001 1.0065V14.8776H30.0743C30.6288 14.8776 31.0946 14.4015 31.0564 13.8361ZM13.5883 17.8532V3.14332C13.5883 2.55131 13.0794 2.06468 12.5061 2.14775C5.27708 3.19168 -0.24858 9.64556 0.0086252 17.3802C0.27311 25.3237 6.9659 31.8377 14.7427 31.7379C17.8001 31.6988 20.6251 30.6921 22.9478 29.0084C23.427 28.6613 23.4586 27.9403 23.043 27.5157L13.5883 17.8532Z" fill="#9FA2B4"/>
</svg>
