<svg width="55" height="55" viewBox="0 0 55 55" fill="none" xmlns="http://www.w3.org/2000/svg">
<path d="M54.163 27.5624C54.163 42.6683 42.1181 54.914 27.2598 54.914C12.4016 54.914 0.356598 42.6683 0.356598 27.5624C0.356598 12.4565 12.4016 0.210815 27.2598 0.210815C42.1181 0.210815 54.163 12.4565 54.163 27.5624Z" fill="#78B563"/>
<path d="M21.3716 22.08H28.4786C30.242 22.08 31.6143 22.5093 32.5956 23.368C33.577 24.2113 34.0676 25.369 34.0676 26.841C34.0676 28.313 33.5693 29.4783 32.5726 30.337C31.5913 31.1957 30.2266 31.625 28.4786 31.625H24.3386V38.456H21.3716V22.08ZM28.1336 29.325C29.161 29.325 29.9353 29.118 30.4566 28.704C30.9933 28.2747 31.2616 27.6613 31.2616 26.864C31.2616 26.0513 31.001 25.438 30.4796 25.024C29.9583 24.5947 29.1763 24.38 28.1336 24.38H24.3386V29.325H28.1336Z" fill="white"/>
</svg>
