<svg width="32" height="32" viewBox="0 0 32 32" fill="none" xmlns="http://www.w3.org/2000/svg">
<path d="M16.0008 6C14.4099 6.00221 12.8847 6.6937 11.7598 7.92284C10.6349 9.15197 10.002 10.8184 10 12.5567H13.0507C13.0507 10.7783 14.3747 9.33333 16.0008 9.33333C17.6268 9.33333 18.9508 10.7783 18.9508 12.5567C18.9508 13.5533 18.2171 14.2767 17.096 15.2667C16.7297 15.5802 16.3779 15.9134 16.0419 16.265C14.5196 17.9267 14.4754 19.6917 14.4754 19.8883V21H17.5261L17.5246 19.945C17.5261 19.9183 17.5749 19.3017 18.1973 18.6233C18.4261 18.3733 18.7144 18.1233 19.0133 17.86C20.2016 16.8083 22 15.22 22 12.5567C21.9988 10.8184 21.3664 9.15173 20.2416 7.92245C19.1169 6.69318 17.5916 6.00177 16.0008 6ZM14.4754 22.6667H17.5261V26H14.4754V22.6667Z" fill="#60626E"/>
<path d="M16 0C7.1776 0 0 7.1776 0 16C0 24.8224 7.1776 32 16 32C24.8224 32 32 24.8224 32 16C32 7.1776 24.8224 0 16 0ZM16 28.8C8.9424 28.8 3.2 23.0576 3.2 16C3.2 8.9424 8.9424 3.2 16 3.2C23.0576 3.2 28.8 8.9424 28.8 16C28.8 23.0576 23.0576 28.8 16 28.8Z" fill="#60626E"/>
</svg>
