<?xml version="1.0" encoding="UTF-8" standalone="no"?>
<svg
   xmlns:dc="http://purl.org/dc/elements/1.1/"
   xmlns:cc="http://creativecommons.org/ns#"
   xmlns:rdf="http://www.w3.org/1999/02/22-rdf-syntax-ns#"
   xmlns:svg="http://www.w3.org/2000/svg"
   xmlns="http://www.w3.org/2000/svg"
   xmlns:sodipodi="http://sodipodi.sourceforge.net/DTD/sodipodi-0.dtd"
   xmlns:inkscape="http://www.inkscape.org/namespaces/inkscape"
   version="1.1"
   id="Capa_1"
   x="0px"
   y="0px"
   viewBox="0 0 489.9 489.9"
   style="enable-background:new 0 0 489.9 489.9;"
   xml:space="preserve"
   sodipodi:docname="logout.svg"
   inkscape:version="1.0.2 (e86c870879, 2021-01-15)"><metadata
   id="metadata77"><rdf:RDF><cc:Work
       rdf:about=""><dc:format>image/svg+xml</dc:format><dc:type
         rdf:resource="http://purl.org/dc/dcmitype/StillImage" /></cc:Work></rdf:RDF></metadata><defs
   id="defs75" /><sodipodi:namedview
   pagecolor="#ffffff"
   bordercolor="#666666"
   borderopacity="1"
   objecttolerance="10"
   gridtolerance="10"
   guidetolerance="10"
   inkscape:pageopacity="0"
   inkscape:pageshadow="2"
   inkscape:window-width="854"
   inkscape:window-height="480"
   id="namedview73"
   showgrid="false"
   inkscape:zoom="1.1328843"
   inkscape:cx="244.95"
   inkscape:cy="244.95"
   inkscape:window-x="446"
   inkscape:window-y="86"
   inkscape:window-maximized="0"
   inkscape:current-layer="g8" />
<g
   id="g40">
	<g
   id="g8">
		<g
   id="g6"
   style="fill:#808080">
			<path
   d="m 468.3,255.8 c 0.1,-0.1 0.1,-0.1 0.2,-0.2 0.3,-0.4 0.6,-0.7 0.8,-1.1 0.1,-0.1 0.1,-0.2 0.2,-0.3 0.2,-0.4 0.5,-0.8 0.7,-1.2 0,-0.1 0.1,-0.2 0.1,-0.2 0.2,-0.4 0.4,-0.8 0.6,-1.3 0,-0.1 0,-0.1 0.1,-0.2 0.2,-0.4 0.3,-0.9 0.5,-1.4 0,-0.1 0,-0.2 0.1,-0.2 0.1,-0.5 0.3,-0.9 0.3,-1.4 0,-0.2 0,-0.3 0.1,-0.5 0.1,-0.4 0.1,-0.8 0.2,-1.2 0.1,-0.6 0.1,-1.1 0.1,-1.7 0,-0.6 0,-1.1 -0.1,-1.7 0,-0.4 -0.1,-0.8 -0.2,-1.2 0,-0.2 0,-0.3 -0.1,-0.5 -0.1,-0.5 -0.2,-0.9 -0.3,-1.4 0,-0.1 0,-0.2 -0.1,-0.2 -0.1,-0.5 -0.3,-0.9 -0.5,-1.4 0,-0.1 0,-0.1 -0.1,-0.2 -0.2,-0.4 -0.4,-0.9 -0.6,-1.3 0,-0.1 -0.1,-0.2 -0.1,-0.2 -0.2,-0.4 -0.4,-0.8 -0.7,-1.2 -0.1,-0.1 -0.1,-0.2 -0.2,-0.3 -0.3,-0.4 -0.5,-0.8 -0.8,-1.1 -0.1,-0.1 -0.1,-0.1 -0.2,-0.2 -0.4,-0.4 -0.7,-0.9 -1.2,-1.3 l -98.9,-98.8 c -6.7,-6.7 -17.6,-6.7 -24.3,0 -6.7,6.7 -6.7,17.6 0,24.3 l 69.6,69.6 H 136.8 c -9.5,0 -17.2,7.7 -17.2,17.1 0,9.5 7.7,17.2 17.2,17.2 h 276.8 l -69.1,69.1 c -6.7,6.7 -6.7,17.6 0,24.3 3.3,3.3 7.7,5 12.1,5 4.4,0 8.8,-1.7 12.1,-5 L 467,257.2 c 0.5,-0.6 0.9,-1 1.3,-1.4 z"
   id="path2"
   style="fill:#808080" />
			<path
   d="m 110.7,34.3 h 128 c 9.5,0 17.2,-7.7 17.2,-17.1 C 255.9,7.7 248.2,0 238.7,0 h -128 C 59.4,0 17.6,41.8 17.6,93.1 v 303.7 c 0,51.3 41.8,93.1 93.1,93.1 h 125.9 c 9.5,0 17.2,-7.7 17.2,-17.1 0,-9.5 -7.7,-17.2 -17.2,-17.2 H 110.7 c -32.4,0 -58.8,-26.4 -58.8,-58.8 V 93.1 C 52,60.6 78.3,34.3 110.7,34.3 Z"
   id="path4"
   style="fill:#808080" />
		</g>
	</g>
	<g
   id="g10">
	</g>
	<g
   id="g12">
	</g>
	<g
   id="g14">
	</g>
	<g
   id="g16">
	</g>
	<g
   id="g18">
	</g>
	<g
   id="g20">
	</g>
	<g
   id="g22">
	</g>
	<g
   id="g24">
	</g>
	<g
   id="g26">
	</g>
	<g
   id="g28">
	</g>
	<g
   id="g30">
	</g>
	<g
   id="g32">
	</g>
	<g
   id="g34">
	</g>
	<g
   id="g36">
	</g>
	<g
   id="g38">
	</g>
</g>
<g
   id="g42">
</g>
<g
   id="g44">
</g>
<g
   id="g46">
</g>
<g
   id="g48">
</g>
<g
   id="g50">
</g>
<g
   id="g52">
</g>
<g
   id="g54">
</g>
<g
   id="g56">
</g>
<g
   id="g58">
</g>
<g
   id="g60">
</g>
<g
   id="g62">
</g>
<g
   id="g64">
</g>
<g
   id="g66">
</g>
<g
   id="g68">
</g>
<g
   id="g70">
</g>
</svg>
