<svg width="33" height="51" viewBox="0 0 33 51" fill="none" xmlns="http://www.w3.org/2000/svg">
<path opacity="0.4" d="M4.95 36.5309C6.77016 36.5309 8.25 34.9568 8.25 33.0206C8.25 31.0845 6.77016 29.5103 4.95 29.5103C3.12984 29.5103 1.65 31.0845 1.65 33.0206C1.65 34.9568 3.12984 36.5309 4.95 36.5309ZM28.05 36.5309C29.8702 36.5309 31.35 34.9568 31.35 33.0206C31.35 31.0845 29.8702 29.5103 28.05 29.5103C26.2298 29.5103 24.75 31.0845 24.75 33.0206C24.75 34.9568 26.2298 36.5309 28.05 36.5309ZM29.7 38.2861H26.4C25.4925 38.2861 24.6727 38.6755 24.0745 39.3062C26.1525 40.5184 27.6272 42.7068 27.9469 45.3067H31.35C32.2627 45.3067 33 44.5223 33 43.5515V41.7964C33 39.8602 31.5202 38.2861 29.7 38.2861ZM16.5 38.2861C19.6917 38.2861 22.275 35.5381 22.275 32.143C22.275 28.7479 19.6917 26 16.5 26C13.3083 26 10.725 28.7479 10.725 32.143C10.725 35.5381 13.3083 38.2861 16.5 38.2861ZM20.46 40.0412H20.032C18.9595 40.5897 17.7684 40.9188 16.5 40.9188C15.2316 40.9188 14.0456 40.5897 12.968 40.0412H12.54C9.26062 40.0412 6.6 42.8714 6.6 46.3598V47.9394C6.6 49.3929 7.70859 50.5721 9.075 50.5721H23.925C25.2914 50.5721 26.4 49.3929 26.4 47.9394V46.3598C26.4 42.8714 23.7394 40.0412 20.46 40.0412ZM8.92547 39.3062C8.32734 38.6755 7.5075 38.2861 6.6 38.2861H3.3C1.47984 38.2861 0 39.8602 0 41.7964V43.5515C0 44.5223 0.737344 45.3067 1.65 45.3067H5.04797C5.37281 42.7068 6.8475 40.5184 8.92547 39.3062Z" fill="#9FA2B4"/>
<path d="M16.039 23.207C14.4597 23.207 13.0797 22.8697 11.899 22.195C10.7337 21.505 9.829 20.5313 9.185 19.274C8.55633 18.0013 8.242 16.5063 8.242 14.789C8.242 13.087 8.55633 11.6073 9.185 10.35C9.81367 9.07733 10.7107 8.10367 11.876 7.429C13.0567 6.75433 14.4443 6.417 16.039 6.417C17.6337 6.417 19.0137 6.75433 20.179 7.429C21.3597 8.10367 22.2567 9.07733 22.87 10.35C23.4987 11.6073 23.813 13.087 23.813 14.789C23.813 16.5063 23.4987 18.0013 22.87 19.274C22.2413 20.5313 21.3443 21.505 20.179 22.195C19.0137 22.8697 17.6337 23.207 16.039 23.207ZM16.039 20.838C17.557 20.838 18.7377 20.3167 19.581 19.274C20.4243 18.2313 20.846 16.7363 20.846 14.789C20.846 12.857 20.4243 11.3773 19.581 10.35C18.7377 9.30733 17.557 8.786 16.039 8.786C14.521 8.786 13.3403 9.29967 12.497 10.327C11.6537 11.3543 11.232 12.8417 11.232 14.789C11.232 16.7363 11.6537 18.2313 12.497 19.274C13.3403 20.3167 14.521 20.838 16.039 20.838Z" fill="#60626E"/>
</svg>
