<svg width="25" height="24" viewBox="0 0 25 24" fill="none" xmlns="http://www.w3.org/2000/svg">
<path d="M5.55556 5.88707H19.4444V17.6612H5.55556V5.88707ZM22.9167 11.7741C22.9167 13.3998 23.8494 14.7177 25 14.7177V20.6048C25 22.2304 24.0673 23.5483 22.9167 23.5483H2.08333C0.932726 23.5483 0 22.2304 0 20.6048V14.7177C1.15061 14.7177 2.08333 13.3998 2.08333 11.7741C2.08333 10.1485 1.15061 8.83061 0 8.83061V2.94354C0 1.31785 0.932726 0 2.08333 0H22.9167C24.0673 0 25 1.31785 25 2.94354V8.83061C23.8494 8.83061 22.9167 10.1485 22.9167 11.7741ZM20.8333 5.39648C20.8333 4.58364 20.367 3.92472 19.7917 3.92472H5.20833C4.63303 3.92472 4.16667 4.58364 4.16667 5.39648V18.1518C4.16667 18.9647 4.63303 19.6236 5.20833 19.6236H19.7917C20.367 19.6236 20.8333 18.9647 20.8333 18.1518V5.39648Z" fill="#DDE2FF"/>
</svg>
