<?xml version="1.0" encoding="UTF-8" standalone="no"?>
<svg
   xmlns:dc="http://purl.org/dc/elements/1.1/"
   xmlns:cc="http://creativecommons.org/ns#"
   xmlns:rdf="http://www.w3.org/1999/02/22-rdf-syntax-ns#"
   xmlns:svg="http://www.w3.org/2000/svg"
   xmlns="http://www.w3.org/2000/svg"
   xmlns:sodipodi="http://sodipodi.sourceforge.net/DTD/sodipodi-0.dtd"
   xmlns:inkscape="http://www.inkscape.org/namespaces/inkscape"
   width="45"
   height="45"
   viewBox="0 0 45 45"
   fill="none"
   version="1.1"
   id="svg4"
   sodipodi:docname="Ellipse 21.svg"
   inkscape:version="1.0.2 (e86c870879, 2021-01-15)">
  <metadata
     id="metadata10">
    <rdf:RDF>
      <cc:Work
         rdf:about="">
        <dc:format>image/svg+xml</dc:format>
        <dc:type
           rdf:resource="http://purl.org/dc/dcmitype/StillImage" />
        <dc:title></dc:title>
      </cc:Work>
    </rdf:RDF>
  </metadata>
  <defs
     id="defs8" />
  <sodipodi:namedview
     pagecolor="#ffffff"
     bordercolor="#666666"
     borderopacity="1"
     objecttolerance="10"
     gridtolerance="10"
     guidetolerance="10"
     inkscape:pageopacity="0"
     inkscape:pageshadow="2"
     inkscape:window-width="1366"
     inkscape:window-height="742"
     id="namedview6"
     showgrid="false"
     inkscape:zoom="12.333333"
     inkscape:cx="20.189189"
     inkscape:cy="22.5"
     inkscape:window-x="0"
     inkscape:window-y="26"
     inkscape:window-maximized="1"
     inkscape:current-layer="svg4" />
  <circle
     cx="21.948164"
     cy="24.143221"
     r="22.5"
     fill="#c4c4c4"
     fill-opacity="0.7"
     id="circle2" />
  <g
     style="fill:none"
     id="g846"
     transform="translate(12.604485,15.41649)">
    <path
       d="m 16.7022,14.3622 h -1.1286 l 0.755,0.448 c 1.4,-1.5735 2.2428,-3.6163 2.2428,-5.8385 C 18.5714,4.01656 14.4143,0 9.28571,0 4.15714,0 0,4.01656 0,8.9717 c 0,4.9551 4.15714,8.9717 9.28571,8.9717 2.29999,0 4.41429,-0.8143 6.04289,-2.167 l -1.0429,-0.5935 v 1.0904 L 18.5,20.5 l 1,-1 1,-1 z m -7.41649,0.8207 c -3.55714,0 -6.42857,-2.7743 -6.42857,-6.2112 0,-3.43685 2.87143,-6.21118 6.42857,-6.21118 3.55719,0 6.42859,2.77433 6.42859,6.21118 0,3.4369 -2.8714,6.2112 -6.42859,6.2112 z"
       fill="#565656"
       id="path835" />
  </g>
</svg>
