<svg width="28" height="18" viewBox="0 0 28 18" fill="none" xmlns="http://www.w3.org/2000/svg">
<path d="M0 2C0 0.895431 0.895431 0 2 0H26C27.1046 0 28 0.895431 28 2C28 3.10457 27.1046 4 26 4H2C0.895431 4 0 3.10457 0 2Z" fill="#60626E"/>
<path d="M0 9C0 7.89543 0.895431 7 2 7H26C27.1046 7 28 7.89543 28 9C28 10.1046 27.1046 11 26 11H2C0.895431 11 0 10.1046 0 9Z" fill="#60626E"/>
<path d="M0 16C0 14.8954 0.895431 14 2 14H26C27.1046 14 28 14.8954 28 16C28 17.1046 27.1046 18 26 18H2C0.895431 18 0 17.1046 0 16Z" fill="#60626E"/>
</svg>
