<svg width="33" height="52" viewBox="0 0 33 52" fill="none" xmlns="http://www.w3.org/2000/svg">
<path opacity="0.4" d="M4.95 37.5309C6.77016 37.5309 8.25 35.9568 8.25 34.0206C8.25 32.0845 6.77016 30.5103 4.95 30.5103C3.12984 30.5103 1.65 32.0845 1.65 34.0206C1.65 35.9568 3.12984 37.5309 4.95 37.5309ZM28.05 37.5309C29.8702 37.5309 31.35 35.9568 31.35 34.0206C31.35 32.0845 29.8702 30.5103 28.05 30.5103C26.2298 30.5103 24.75 32.0845 24.75 34.0206C24.75 35.9568 26.2298 37.5309 28.05 37.5309ZM29.7 39.2861H26.4C25.4925 39.2861 24.6727 39.6755 24.0745 40.3062C26.1525 41.5184 27.6272 43.7068 27.9469 46.3067H31.35C32.2627 46.3067 33 45.5223 33 44.5515V42.7964C33 40.8602 31.5202 39.2861 29.7 39.2861ZM16.5 39.2861C19.6917 39.2861 22.275 36.5381 22.275 33.143C22.275 29.7479 19.6917 27 16.5 27C13.3083 27 10.725 29.7479 10.725 33.143C10.725 36.5381 13.3083 39.2861 16.5 39.2861ZM20.46 41.0412H20.032C18.9595 41.5897 17.7684 41.9188 16.5 41.9188C15.2316 41.9188 14.0456 41.5897 12.968 41.0412H12.54C9.26062 41.0412 6.6 43.8714 6.6 47.3598V48.9394C6.6 50.3929 7.70859 51.5721 9.075 51.5721H23.925C25.2914 51.5721 26.4 50.3929 26.4 48.9394V47.3598C26.4 43.8714 23.7394 41.0412 20.46 41.0412ZM8.92547 40.3062C8.32734 39.6755 7.5075 39.2861 6.6 39.2861H3.3C1.47984 39.2861 0 40.8602 0 42.7964V44.5515C0 45.5223 0.737344 46.3067 1.65 46.3067H5.04797C5.37281 43.7068 6.8475 41.5184 8.92547 40.3062Z" fill="#9FA2B4"/>
<path d="M24.79 6.624L17.499 23H15.084L7.793 6.624H10.875L16.326 19.274L21.777 6.624H24.79Z" fill="#60626E"/>
</svg>
